#tb 0: 1/25
#media_type 0: video
#codec_id 0: rawvideo
#dimensions 0: 352x288
#sar 0: 0/1
0,          0,          0,        1,   152064, 0x9ada9be9
0,          1,          1,        1,   152064, 0xb0ec7d59
0,          2,          2,        1,   152064, 0x938816b8
0,          3,          3,        1,   152064, 0x1d8fac2e
0,          4,          4,        1,   152064, 0x8ed4bbf6
0,          5,          5,        1,   152064, 0xc9e585de
0,          6,          6,        1,   152064, 0xf1e83c0b
0,          7,          7,        1,   152064, 0xed0e5981
0,          8,          8,        1,   152064, 0x6fc55e8c
0,          9,          9,        1,   152064, 0xcf3e2eb5
0,         10,         10,        1,   152064, 0xe62d4dcf
0,         11,         11,        1,   152064, 0xd30712cd
0,         12,         12,        1,   152064, 0xcb99d3e8
0,         13,         13,        1,   152064, 0x6b9cb3ed
0,         14,         14,        1,   152064, 0xb96774c1
0,         15,         15,        1,   152064, 0xfae0f615
0,         16,         16,        1,   152064, 0xeb211f65
0,         17,         17,        1,   152064, 0xc9f7ff9f
0,         18,         18,        1,   152064, 0xe5bc2b7f
0,         19,         19,        1,   152064, 0x8f82a022
0,         20,         20,        1,   152064, 0xb8e5bb92
0,         21,         21,        1,   152064, 0x051aeb1a
0,         22,         22,        1,   152064, 0x5b3ce556
0,         23,         23,        1,   152064, 0xda552e9c
0,         24,         24,        1,   152064, 0x865ebca1
0,         25,         25,        1,   152064, 0xd77b6d16
0,         26,         26,        1,   152064, 0xcf7e89d8
0,         27,         27,        1,   152064, 0xe340d477
0,         28,         28,        1,   152064, 0x8167c0e4
0,         29,         29,        1,   152064, 0xa6af7555
0,         30,         30,        1,   152064, 0x305a6def
0,         31,         31,        1,   152064, 0xf395b657
0,         32,         32,        1,   152064, 0x6f6bdfdc
0,         33,         33,        1,   152064, 0x976c50ff
0,         34,         34,        1,   152064, 0x89661e9d
0,         35,         35,        1,   152064, 0x001760a0
0,         36,         36,        1,   152064, 0x7ac624ba
0,         37,         37,        1,   152064, 0x40941960
0,         38,         38,        1,   152064, 0x89917c8a
0,         39,         39,        1,   152064, 0xcf4667e5
0,         40,         40,        1,   152064, 0x985f6670
0,         41,         41,        1,   152064, 0x5368a016
0,         42,         42,        1,   152064, 0x2f04b620
0,         43,         43,        1,   152064, 0x637f1129
0,         44,         44,        1,   152064, 0x4b41f131
0,         45,         45,        1,   152064, 0x6e786dea
0,         46,         46,        1,   152064, 0xeafa55b3
0,         47,         47,        1,   152064, 0xfdf2d102
0,         48,         48,        1,   152064, 0x127abdfa
0,         49,         49,        1,   152064, 0x0e4ae6c7
